# xmcd
#
# Track frame offsets:
#	150
#	27865
#	57542
#	88231
#	120158
#	140483
#	165386
#	192802
#	219823
#	246621
#	278074
#	309916
#
# Disc length: 4511 seconds
#
# Revision: 0
# Processed by: cddbd v1.5.2PL0 Copyright (c) Steve Scherf et al.
# Submitted via: EasyCDDAExtractor 11.0.2.1
#
DISCID=a1119d0c
DTITLE=Various Artist - Viper Room [CD2]
DYEAR=2003
DGENRE=Electronic
TTITLE0=Future Sound of London - Papua New Guinea (Remix 02)
TTITLE1=Lustral - Broken (Pitch and Sulphur's "Back In Time" Remix)
TTITLE2=AYLA presents YEL - Sun Is Coming Out (Alya's Uplifiting Mix)
TTITLE3=Sun Decade - I'm Alone (Ronski Sped Mix)
TTITLE4=Three Drives - Carrera 2 (Nu NRG Remix)
TTITLE5=Yanou presents Do - On and On (DJ's @ Work Remix)
TTITLE6=Cosmic Gate feat. Jan Johnston - Raging (Storm) (Flutlicht Vocal Mix)
TTITLE7=Driftwood - Freeloader (Project Medusa Remix)
TTITLE8=DJ Sam-Pling feat. Richard Burton - Beautiful World (Espuma's Club Mix
TTITLE8=)
TTITLE9=Symphonic - Spanish Night (Steve Murano Remix)
TTITLE10=Dave Joy - Second Chase (Original Mix)
TTITLE11=Green Court - Silent Heart (Flutlicht Remix)
EXTD=
EXTT0=
EXTT1=
EXTT2=
EXTT3=
EXTT4=
EXTT5=
EXTT6=
EXTT7=
EXTT8=
EXTT9=
EXTT10=
EXTT11=
PLAYORDER=
